<?xml version="1.0" encoding="utf-8" ?>
<svg baseProfile="tiny" height="100%" version="1.2" width="100%" xmlns="http://www.w3.org/2000/svg" xmlns:ev="http://www.w3.org/2001/xml-events" xmlns:xlink="http://www.w3.org/1999/xlink"><defs /><polyline fill="none" points="150.0,50.315 148.9899,50.6671 147.9798,51.0149 146.9697,51.3584 145.9596,51.6978 144.9495,52.0331 143.9394,52.3643 142.9293,52.6917 141.9192,53.0151 140.9091,53.3348 139.899,53.6507 138.8889,53.9629 137.8788,54.2715 136.8687,54.5765 135.8586,54.878 134.8485,55.1759 133.8384,55.4703 132.8283,55.7613 131.8182,56.0488 130.8081,56.3329 129.798,56.6137 128.7879,56.891 127.7778,57.1649 126.7677,57.4355 125.7576,57.7026 124.7475,57.9664 123.7374,58.2267 122.7273,58.4836 121.7172,58.737 120.7071,58.9869 119.697,59.2333 118.6869,59.4761 117.6768,59.7153 116.6667,59.9508 115.6566,60.1826 114.6465,60.4106 113.6364,60.6347 112.6263,60.8549 111.6162,61.0711 110.6061,61.2832 109.596,61.4911 108.5859,61.6947 107.5758,61.8938 106.5657,62.0885 105.5556,62.2786 104.5455,62.4639 103.5354,62.6443 102.5253,62.8196 101.5152,62.9898 100.5051,63.1547 99.4949,63.314 98.4848,63.4677 97.4747,63.6156 96.4646,63.7574 95.4545,63.8929 94.4444,64.022 93.4343,64.1445 92.4242,64.26 91.4141,64.3683 90.404,64.4693 89.3939,64.5626 88.3838,64.6479 87.3737,64.7249 86.3636,64.7933 85.3535,64.8529 84.3434,64.9031 83.3333,64.9438 82.3232,64.9744 81.3131,64.9945 80.303,65.0037 79.2929,65.0016 78.2828,64.9876 77.2727,64.9611 76.2626,64.9217 75.2525,64.8686 74.2424,64.8012 73.2323,64.7187 72.2222,64.6204 71.2121,64.5054 70.202,64.3726 69.1919,64.2211 68.1818,64.0496 67.1717,63.8569 66.1616,63.6413 65.1515,63.4012 64.1414,63.1345 63.1313,62.839 62.1212,62.512 61.1111,62.1501 60.101,61.7493 59.0909,61.3048 58.0808,60.81 57.0707,60.2569 56.0606,59.6339 55.0505,58.9248 54.0404,58.1049 53.0303,57.1326 52.0202,55.9269 51.0101,54.2797 50.0,50.0 50.0,50.0 51.0101,45.7203 52.0202,44.0731 53.0303,42.8674 54.0404,41.8951 55.0505,41.0752 56.0606,40.3661 57.0707,39.7431 58.0808,39.19 59.0909,38.6952 60.101,38.2507 61.1111,37.8499 62.1212,37.488 63.1313,37.161 64.1414,36.8655 65.1515,36.5988 66.1616,36.3587 67.1717,36.1431 68.1818,35.9504 69.1919,35.7789 70.202,35.6274 71.2121,35.4946 72.2222,35.3796 73.2323,35.2813 74.2424,35.1988 75.2525,35.1314 76.2626,35.0783 77.2727,35.0389 78.2828,35.0124 79.2929,34.9984 80.303,34.9963 81.3131,35.0055 82.3232,35.0256 83.3333,35.0562 84.3434,35.0969 85.3535,35.1471 86.3636,35.2067 87.3737,35.2751 88.3838,35.3521 89.3939,35.4374 90.404,35.5307 91.4141,35.6317 92.4242,35.74 93.4343,35.8555 94.4444,35.978 95.4545,36.1071 96.4646,36.2426 97.4747,36.3844 98.4848,36.5323 99.4949,36.686 100.5051,36.8453 101.5152,37.0102 102.5253,37.1804 103.5354,37.3557 104.5455,37.5361 105.5556,37.7214 106.5657,37.9115 107.5758,38.1062 108.5859,38.3053 109.596,38.5089 110.6061,38.7168 111.6162,38.9289 112.6263,39.1451 113.6364,39.3653 114.6465,39.5894 115.6566,39.8174 116.6667,40.0492 117.6768,40.2847 118.6869,40.5239 119.697,40.7667 120.7071,41.0131 121.7172,41.263 122.7273,41.5164 123.7374,41.7733 124.7475,42.0336 125.7576,42.2974 126.7677,42.5645 127.7778,42.8351 128.7879,43.109 129.798,43.3863 130.8081,43.6671 131.8182,43.9512 132.8283,44.2387 133.8384,44.5297 134.8485,44.8241 135.8586,45.122 136.8687,45.4235 137.8788,45.7285 138.8889,46.0371 139.899,46.3493 140.9091,46.6652 141.9192,46.9849 142.9293,47.3083 143.9394,47.6357 144.9495,47.9669 145.9596,48.3022 146.9697,48.6416 147.9798,48.9851 148.9899,49.3329 150.0,49.685" stroke="black" /></svg>