<?xml version="1.0" encoding="utf-8" ?>
<svg baseProfile="tiny" height="100%" version="1.2" width="100%" xmlns="http://www.w3.org/2000/svg" xmlns:ev="http://www.w3.org/2001/xml-events" xmlns:xlink="http://www.w3.org/1999/xlink"><defs /><polyline fill="none" points="45.0,15.0788 44.697,15.1668 44.3939,15.2537 44.0909,15.3396 43.7879,15.4244 43.4848,15.5083 43.1818,15.5911 42.8788,15.6729 42.5758,15.7538 42.2727,15.8337 41.9697,15.9127 41.6667,15.9907 41.3636,16.0679 41.0606,16.1441 40.7576,16.2195 40.4545,16.294 40.1515,16.3676 39.8485,16.4403 39.5455,16.5122 39.2424,16.5832 38.9394,16.6534 38.6364,16.7227 38.3333,16.7912 38.0303,16.8589 37.7273,16.9257 37.4242,16.9916 37.1212,17.0567 36.8182,17.1209 36.5152,17.1843 36.2121,17.2467 35.9091,17.3083 35.6061,17.369 35.303,17.4288 35.0,17.4877 34.697,17.5457 34.3939,17.6027 34.0909,17.6587 33.7879,17.7137 33.4848,17.7678 33.1818,17.8208 32.8788,17.8728 32.5758,17.9237 32.2727,17.9735 31.9697,18.0221 31.6667,18.0696 31.3636,18.116 31.0606,18.1611 30.7576,18.2049 30.4545,18.2475 30.1515,18.2887 29.8485,18.3285 29.5455,18.3669 29.2424,18.4039 28.9394,18.4393 28.6364,18.4732 28.3333,18.5055 28.0303,18.5361 27.7273,18.565 27.4242,18.5921 27.1212,18.6173 26.8182,18.6406 26.5152,18.662 26.2121,18.6812 25.9091,18.6983 25.6061,18.7132 25.303,18.7258 25.0,18.7359 24.697,18.7436 24.3939,18.7486 24.0909,18.7509 23.7879,18.7504 23.4848,18.7469 23.1818,18.7403 22.8788,18.7304 22.5758,18.7171 22.2727,18.7003 21.9697,18.6797 21.6667,18.6551 21.3636,18.6263 21.0606,18.5932 20.7576,18.5553 20.4545,18.5124 20.1515,18.4642 19.8485,18.4103 19.5455,18.3503 19.2424,18.2836 18.9394,18.2098 18.6364,18.128 18.3333,18.0375 18.0303,17.9373 17.7273,17.8262 17.4242,17.7025 17.1212,17.5642 16.8182,17.4085 16.5152,17.2312 16.2121,17.0262 15.9091,16.7831 15.6061,16.4817 15.303,16.0699 15.0,15.0 15.0,15.0 15.303,13.9301 15.6061,13.5183 15.9091,13.2169 16.2121,12.9738 16.5152,12.7688 16.8182,12.5915 17.1212,12.4358 17.4242,12.2975 17.7273,12.1738 18.0303,12.0627 18.3333,11.9625 18.6364,11.872 18.9394,11.7902 19.2424,11.7164 19.5455,11.6497 19.8485,11.5897 20.1515,11.5358 20.4545,11.4876 20.7576,11.4447 21.0606,11.4068 21.3636,11.3737 21.6667,11.3449 21.9697,11.3203 22.2727,11.2997 22.5758,11.2829 22.8788,11.2696 23.1818,11.2597 23.4848,11.2531 23.7879,11.2496 24.0909,11.2491 24.3939,11.2514 24.697,11.2564 25.0,11.2641 25.303,11.2742 25.6061,11.2868 25.9091,11.3017 26.2121,11.3188 26.5152,11.338 26.8182,11.3594 27.1212,11.3827 27.4242,11.4079 27.7273,11.435 28.0303,11.4639 28.3333,11.4945 28.6364,11.5268 28.9394,11.5607 29.2424,11.5961 29.5455,11.6331 29.8485,11.6715 30.1515,11.7113 30.4545,11.7525 30.7576,11.7951 31.0606,11.8389 31.3636,11.884 31.6667,11.9304 31.9697,11.9779 32.2727,12.0265 32.5758,12.0763 32.8788,12.1272 33.1818,12.1792 33.4848,12.2322 33.7879,12.2863 34.0909,12.3413 34.3939,12.3973 34.697,12.4543 35.0,12.5123 35.303,12.5712 35.6061,12.631 35.9091,12.6917 36.2121,12.7533 36.5152,12.8157 36.8182,12.8791 37.1212,12.9433 37.4242,13.0084 37.7273,13.0743 38.0303,13.1411 38.3333,13.2088 38.6364,13.2773 38.9394,13.3466 39.2424,13.4168 39.5455,13.4878 39.8485,13.5597 40.1515,13.6324 40.4545,13.706 40.7576,13.7805 41.0606,13.8559 41.3636,13.9321 41.6667,14.0093 41.9697,14.0873 42.2727,14.1663 42.5758,14.2462 42.8788,14.3271 43.1818,14.4089 43.4848,14.4917 43.7879,14.5756 44.0909,14.6604 44.3939,14.7463 44.697,14.8332 45.0,14.9213" stroke="black" /></svg>